<svg width="206" height="80" viewBox="0 0 206 80" fill="none" xmlns="http://www.w3.org/2000/svg">
<rect x="1.5" y="1.5" width="203" height="77" rx="8.5" fill="white"/>
<path d="M34.473 60C28.5198 59.9657 23.5955 47.8132 23.5955 41.6242C23.5955 31.5145 31.1794 29.3013 34.1023 29.3013C35.4194 29.3013 36.8259 29.8185 38.0665 30.2763C38.934 30.5955 39.8312 30.9252 40.3301 30.9252C40.6288 30.9252 41.3326 30.6448 41.9541 30.3988C43.2793 29.8712 44.9283 29.2155 46.8487 29.2155C46.8521 29.2155 46.8567 29.2155 46.8601 29.2155C48.294 29.2155 52.6416 29.5302 55.2555 33.4555L55.8677 34.3755L54.9866 35.0405C53.7277 35.9903 51.4308 37.723 51.4308 41.1551C51.4308 45.22 54.0321 46.7833 55.2818 47.5352C55.8334 47.867 56.4044 48.2092 56.4044 48.9577C56.4044 49.4463 52.5043 59.9394 46.8406 59.9394C45.4548 59.9394 44.4751 59.5228 43.6111 59.1555C42.7368 58.7835 41.9826 58.4631 40.7363 58.4631C40.1046 58.4631 39.3058 58.7618 38.4601 59.0788C37.3044 59.5102 35.9962 60 34.5119 60H34.473Z" fill="black"/>
<path d="M47.4486 20C47.5961 25.3184 43.7926 29.0081 39.9935 28.7767C39.3675 24.5324 43.7921 20 47.4486 20Z" fill="black"/>
<path d="M71.386 32.44C71.386 32.748 71.638 33 71.932 33H74.788C77.868 33 79.996 30.858 79.996 28.1V28.072C79.996 25.314 77.868 23.2 74.788 23.2H71.932C71.638 23.2 71.386 23.452 71.386 23.76V32.44ZM72.492 31.978V24.222H74.788C77.266 24.222 78.848 25.93 78.848 28.1V28.128C78.848 30.298 77.266 31.978 74.788 31.978H72.492ZM85.1792 33.168C87.3632 33.168 88.9732 31.432 88.9732 29.388V29.36C88.9732 27.316 87.3772 25.608 85.2072 25.608C83.0232 25.608 81.4272 27.344 81.4272 29.388V29.416C81.4272 31.46 83.0092 33.168 85.1792 33.168ZM85.2072 32.202C83.6812 32.202 82.5332 30.942 82.5332 29.388V29.36C82.5332 27.834 83.6112 26.56 85.1792 26.56C86.7052 26.56 87.8672 27.834 87.8672 29.388V29.416C87.8672 30.942 86.7752 32.202 85.2072 32.202ZM92.6975 33.112H92.7255C93.0055 33.112 93.2155 32.944 93.3135 32.622L95.1335 27.344L96.9395 32.622C97.0375 32.944 97.2475 33.112 97.5275 33.112H97.5695C97.8215 33.112 98.0455 32.944 98.1575 32.622L100.37 26.49C100.398 26.406 100.44 26.294 100.44 26.196C100.44 25.93 100.216 25.692 99.9075 25.692C99.6135 25.692 99.4595 25.888 99.3895 26.112L97.5415 31.572L95.7215 26.126C95.6375 25.874 95.4555 25.692 95.1615 25.692H95.1055C94.8255 25.692 94.6575 25.874 94.5735 26.126L92.7395 31.572L90.9195 26.14C90.8355 25.874 90.6535 25.692 90.3735 25.692C90.0515 25.692 89.8275 25.944 89.8275 26.21C89.8275 26.308 89.8695 26.42 89.8975 26.504L92.0955 32.622C92.2075 32.944 92.4315 33.112 92.6975 33.112ZM102.069 32.524C102.069 32.832 102.307 33.07 102.615 33.07C102.923 33.07 103.147 32.832 103.147 32.524V28.856C103.147 27.498 104.071 26.588 105.317 26.588C106.591 26.588 107.319 27.428 107.319 28.772V32.524C107.319 32.832 107.557 33.07 107.865 33.07C108.159 33.07 108.397 32.832 108.397 32.524V28.506C108.397 26.784 107.375 25.608 105.625 25.608C104.379 25.608 103.623 26.238 103.147 27.022V26.238C103.147 25.93 102.909 25.692 102.601 25.692C102.307 25.692 102.069 25.944 102.069 26.238V32.524ZM110.514 32.524C110.514 32.832 110.752 33.07 111.06 33.07C111.368 33.07 111.592 32.832 111.592 32.524V23.256C111.592 22.962 111.354 22.71 111.046 22.71C110.752 22.71 110.514 22.962 110.514 23.256V32.524ZM117.118 33.168C119.302 33.168 120.912 31.432 120.912 29.388V29.36C120.912 27.316 119.316 25.608 117.146 25.608C114.962 25.608 113.366 27.344 113.366 29.388V29.416C113.366 31.46 114.948 33.168 117.118 33.168ZM117.146 32.202C115.62 32.202 114.472 30.942 114.472 29.388V29.36C114.472 27.834 115.55 26.56 117.118 26.56C118.644 26.56 119.806 27.834 119.806 29.388V29.416C119.806 30.942 118.714 32.202 117.146 32.202ZM124.741 33.154C126.015 33.154 126.855 32.566 127.359 31.908V32.566C127.359 32.846 127.569 33.07 127.877 33.07C128.171 33.07 128.395 32.846 128.395 32.538V28.576C128.395 27.652 128.143 26.952 127.653 26.462C127.121 25.93 126.337 25.664 125.315 25.664C124.391 25.664 123.663 25.846 122.949 26.154C122.809 26.21 122.655 26.378 122.655 26.602C122.655 26.854 122.879 27.064 123.131 27.064C123.187 27.064 123.257 27.05 123.327 27.022C123.859 26.784 124.475 26.616 125.203 26.616C126.561 26.616 127.359 27.288 127.359 28.59V28.842C126.715 28.66 126.057 28.534 125.133 28.534C123.299 28.534 122.039 29.346 122.039 30.872V30.9C122.039 32.384 123.397 33.154 124.741 33.154ZM124.951 32.3C123.971 32.3 123.131 31.768 123.131 30.858V30.83C123.131 29.92 123.887 29.332 125.245 29.332C126.127 29.332 126.841 29.486 127.373 29.64V30.34C127.373 31.488 126.281 32.3 124.951 32.3ZM137.3 23.256C137.3 22.948 137.062 22.71 136.754 22.71C136.446 22.71 136.222 22.948 136.222 23.256V27.148C135.662 26.336 134.794 25.608 133.45 25.608C131.714 25.608 129.992 27.008 129.992 29.374V29.402C129.992 31.782 131.714 33.154 133.45 33.154C134.78 33.154 135.634 32.412 136.222 31.544V32.524C136.222 32.832 136.46 33.07 136.768 33.07C137.062 33.07 137.3 32.832 137.3 32.524V23.256ZM133.646 26.574C134.99 26.574 136.264 27.694 136.264 29.36V29.388C136.264 31.054 134.99 32.188 133.646 32.188C132.288 32.188 131.098 31.096 131.098 29.388V29.36C131.098 27.61 132.246 26.574 133.646 26.574ZM146.65 33.168C148.834 33.168 150.444 31.432 150.444 29.388V29.36C150.444 27.316 148.848 25.608 146.678 25.608C144.494 25.608 142.898 27.344 142.898 29.388V29.416C142.898 31.46 144.48 33.168 146.65 33.168ZM146.678 32.202C145.152 32.202 144.004 30.942 144.004 29.388V29.36C144.004 27.834 145.082 26.56 146.65 26.56C148.176 26.56 149.338 27.834 149.338 29.388V29.416C149.338 30.942 148.246 32.202 146.678 32.202ZM152.117 32.524C152.117 32.832 152.355 33.07 152.663 33.07C152.971 33.07 153.195 32.832 153.195 32.524V28.856C153.195 27.498 154.119 26.588 155.365 26.588C156.639 26.588 157.367 27.428 157.367 28.772V32.524C157.367 32.832 157.605 33.07 157.913 33.07C158.207 33.07 158.445 32.832 158.445 32.524V28.506C158.445 26.784 157.423 25.608 155.673 25.608C154.427 25.608 153.671 26.238 153.195 27.022V26.238C153.195 25.93 152.957 25.692 152.649 25.692C152.355 25.692 152.117 25.944 152.117 26.238V32.524ZM166.803 33.126C167.223 33.126 167.559 33.056 167.867 32.93C168.049 32.86 168.175 32.706 168.175 32.51C168.175 32.258 167.965 32.048 167.713 32.048C167.629 32.048 167.433 32.146 167.055 32.146C166.327 32.146 165.837 31.824 165.837 30.942V26.714H167.713C167.979 26.714 168.203 26.504 168.203 26.238C168.203 25.986 167.979 25.762 167.713 25.762H165.837V24.054C165.837 23.76 165.585 23.508 165.291 23.508C164.983 23.508 164.759 23.76 164.759 24.054V25.762H164.171C163.919 25.762 163.695 25.972 163.695 26.238C163.695 26.49 163.919 26.714 164.171 26.714H164.759V31.082C164.759 32.552 165.641 33.126 166.803 33.126ZM169.761 32.524C169.761 32.832 169.999 33.07 170.307 33.07C170.615 33.07 170.839 32.832 170.839 32.524V28.856C170.839 27.498 171.763 26.588 173.009 26.588C174.283 26.588 175.011 27.428 175.011 28.772V32.524C175.011 32.832 175.249 33.07 175.557 33.07C175.851 33.07 176.089 32.832 176.089 32.524V28.506C176.089 26.784 175.067 25.608 173.317 25.608C172.071 25.608 171.315 26.238 170.839 27.022V23.256C170.839 22.962 170.601 22.71 170.293 22.71C169.999 22.71 169.761 22.962 169.761 23.256V32.524ZM178.752 28.982C178.892 27.568 179.844 26.518 181.104 26.518C182.546 26.518 183.302 27.666 183.414 28.982H178.752ZM184.002 32.076C184.114 31.978 184.17 31.852 184.17 31.726C184.17 31.474 183.96 31.264 183.694 31.264C183.568 31.264 183.47 31.32 183.386 31.39C182.854 31.88 182.196 32.23 181.3 32.23C180.012 32.23 178.906 31.348 178.752 29.78H183.988C184.254 29.78 184.492 29.57 184.492 29.276C184.492 27.358 183.274 25.608 181.132 25.608C179.13 25.608 177.66 27.288 177.66 29.374V29.402C177.66 31.642 179.284 33.168 181.272 33.168C182.504 33.168 183.316 32.734 184.002 32.076ZM70.924 55.856C70.924 56.56 71.474 57.11 72.178 57.11C72.75 57.11 73.212 56.802 73.432 56.252L74.73 53.282H82.21L83.464 56.164C83.706 56.736 84.146 57.11 84.784 57.11C85.51 57.11 86.06 56.538 86.06 55.812C86.06 55.636 86.016 55.438 85.906 55.24L80.186 42.48C79.878 41.798 79.35 41.38 78.58 41.38H78.448C77.678 41.38 77.128 41.798 76.82 42.48L71.1 55.24C70.99 55.46 70.924 55.658 70.924 55.856ZM75.764 50.884L78.47 44.658L81.176 50.884H75.764ZM88.2476 59.31C88.2476 60.058 88.8416 60.63 89.5676 60.63C90.3156 60.63 90.9096 60.058 90.9096 59.31V55.196C91.7236 56.274 92.9336 57.242 94.8696 57.242C97.6196 57.242 100.26 55.064 100.26 51.214V51.17C100.26 47.298 97.5976 45.142 94.8696 45.142C92.9776 45.142 91.7676 46.11 90.9096 47.32V46.594C90.9096 45.846 90.3156 45.252 89.5676 45.252C88.8196 45.252 88.2476 45.846 88.2476 46.594V59.31ZM94.2316 54.932C92.4276 54.932 90.8436 53.436 90.8436 51.214V51.17C90.8436 48.948 92.4276 47.452 94.2316 47.452C96.0356 47.452 97.5536 48.926 97.5536 51.17V51.214C97.5536 53.502 96.0576 54.932 94.2316 54.932ZM102.567 59.31C102.567 60.058 103.161 60.63 103.887 60.63C104.635 60.63 105.229 60.058 105.229 59.31V55.196C106.043 56.274 107.253 57.242 109.189 57.242C111.939 57.242 114.579 55.064 114.579 51.214V51.17C114.579 47.298 111.917 45.142 109.189 45.142C107.297 45.142 106.087 46.11 105.229 47.32V46.594C105.229 45.846 104.635 45.252 103.887 45.252C103.139 45.252 102.567 45.846 102.567 46.594V59.31ZM108.551 54.932C106.747 54.932 105.163 53.436 105.163 51.214V51.17C105.163 48.948 106.747 47.452 108.551 47.452C110.355 47.452 111.873 48.926 111.873 51.17V51.214C111.873 53.502 110.377 54.932 108.551 54.932ZM128.741 57.22C131.975 57.22 134.241 55.504 134.241 52.622V52.578C134.241 50.026 132.569 48.86 129.313 48.068C126.343 47.364 125.639 46.836 125.639 45.648V45.604C125.639 44.592 126.563 43.778 128.147 43.778C129.357 43.778 130.501 44.174 131.689 44.944C131.909 45.076 132.129 45.142 132.393 45.142C133.097 45.142 133.669 44.592 133.669 43.888C133.669 43.36 133.383 42.986 133.075 42.81C131.689 41.886 130.127 41.38 128.191 41.38C125.133 41.38 122.933 43.206 122.933 45.846V45.89C122.933 48.728 124.781 49.696 128.059 50.488C130.919 51.148 131.535 51.742 131.535 52.842V52.886C131.535 54.03 130.479 54.822 128.807 54.822C127.135 54.822 125.771 54.25 124.495 53.238C124.319 53.106 124.077 52.996 123.703 52.996C122.999 52.996 122.427 53.546 122.427 54.25C122.427 54.69 122.647 55.064 122.955 55.284C124.671 56.56 126.651 57.22 128.741 57.22ZM140.462 57.198C141.166 57.198 141.716 57.088 142.288 56.89C142.662 56.736 142.992 56.34 142.992 55.856C142.992 55.24 142.464 54.756 141.87 54.756C141.782 54.756 141.518 54.822 141.21 54.822C140.308 54.822 139.78 54.404 139.78 53.37V47.672H141.87C142.508 47.672 143.036 47.166 143.036 46.528C143.036 45.89 142.508 45.384 141.87 45.384H139.78V43.404C139.78 42.678 139.186 42.084 138.46 42.084C137.712 42.084 137.118 42.678 137.118 43.404V45.384H136.678C136.04 45.384 135.534 45.89 135.534 46.528C135.534 47.166 136.04 47.672 136.678 47.672H137.118V53.788C137.118 56.34 138.504 57.198 140.462 57.198ZM150.372 57.264C153.958 57.264 156.598 54.514 156.598 51.214V51.17C156.598 47.848 153.98 45.142 150.416 45.142C146.852 45.142 144.212 47.892 144.212 51.214V51.258C144.212 54.558 146.83 57.264 150.372 57.264ZM150.416 54.932C148.348 54.932 146.874 53.238 146.874 51.214V51.17C146.874 49.146 148.238 47.474 150.372 47.474C152.462 47.474 153.936 49.168 153.936 51.214V51.258C153.936 53.26 152.572 54.932 150.416 54.932ZM158.869 55.79C158.869 56.538 159.463 57.11 160.189 57.11C160.937 57.11 161.531 56.516 161.531 55.79V52.358C161.531 49.608 162.829 48.156 164.721 47.826C165.315 47.716 165.777 47.254 165.777 46.55C165.777 45.78 165.293 45.23 164.457 45.23C163.291 45.23 162.147 46.33 161.531 47.782V46.594C161.531 45.846 160.937 45.252 160.189 45.252C159.441 45.252 158.869 45.846 158.869 46.594V55.79ZM169.133 50.378C169.375 48.574 170.519 47.32 172.147 47.32C173.907 47.32 174.919 48.662 175.095 50.378H169.133ZM176.635 55.724C176.833 55.526 176.987 55.24 176.987 54.91C176.987 54.294 176.525 53.832 175.931 53.832C175.623 53.832 175.447 53.92 175.249 54.074C174.501 54.69 173.621 55.086 172.499 55.086C170.783 55.086 169.441 54.03 169.155 52.138H176.437C177.119 52.138 177.691 51.61 177.691 50.862C177.691 48.178 175.865 45.142 172.169 45.142C168.847 45.142 166.493 47.87 166.493 51.192V51.236C166.493 54.822 169.089 57.264 172.455 57.264C174.259 57.264 175.579 56.67 176.635 55.724Z" fill="black"/>
<rect x="1.5" y="1.5" width="203" height="77" rx="8.5" stroke="black" stroke-width="3"/>
</svg>
