<svg width="24" height="24" viewBox="0 0 24 24" fill="none" xmlns="http://www.w3.org/2000/svg">
<path d="M4.2 24L19.8 24C22.1196 24 24 22.1196 24 19.8L24 4.2C24 1.8804 22.1196 0 19.8 0L4.2 0C1.8804 0 0 1.8804 0 4.2L0 19.8C0 22.1196 1.8804 24 4.2 24Z" fill="url(#paint0_radial)"/>
<path d="M16.5 21H7.5C6.30653 21 5.16193 20.5259 4.31802 19.682C3.47411 18.8381 3 17.6935 3 16.5V7.5C3 6.30653 3.47411 5.16193 4.31802 4.31802C5.16193 3.47411 6.30653 3 7.5 3H16.5C17.6935 3 18.8381 3.47411 19.682 4.31802C20.5259 5.16193 21 6.30653 21 7.5V16.5C21 17.6935 20.5259 18.8381 19.682 19.682C18.8381 20.5259 17.6935 21 16.5 21ZM7.5 4.8C6.78422 4.80099 6.09804 5.08577 5.59191 5.59191C5.08577 6.09804 4.80099 6.78422 4.8 7.5V16.5C4.80099 17.2158 5.08577 17.902 5.59191 18.4081C6.09804 18.9142 6.78422 19.199 7.5 19.2H16.5C17.2158 19.199 17.902 18.9142 18.4081 18.4081C18.9142 17.902 19.199 17.2158 19.2 16.5V7.5C19.199 6.78422 18.9142 6.09804 18.4081 5.59191C17.902 5.08577 17.2158 4.80099 16.5 4.8H7.5Z" fill="white"/>
<path d="M12 17.0994C10.9913 17.0994 10.0053 16.8003 9.16662 16.2399C8.32793 15.6795 7.67425 14.883 7.28824 13.9511C6.90223 13.0192 6.80124 11.9938 6.99802 11.0045C7.19481 10.0152 7.68053 9.10642 8.39378 8.39317C9.10703 7.67992 10.0158 7.1942 11.0051 6.99741C11.9944 6.80063 13.0198 6.90162 13.9517 7.28763C14.8836 7.67364 15.6801 8.32732 16.2405 9.16601C16.8009 10.0047 17.1 10.9907 17.1 11.9994C17.099 13.3517 16.5614 14.6483 15.6052 15.6046C14.649 16.5608 13.3523 17.0984 12 17.0994ZM12 8.69942C11.3473 8.69942 10.7093 8.89296 10.1666 9.25557C9.62396 9.61818 9.20099 10.1336 8.95122 10.7366C8.70145 11.3396 8.6361 12.0031 8.76344 12.6432C8.89077 13.2834 9.20506 13.8714 9.66657 14.3329C10.1281 14.7944 10.7161 15.1087 11.3562 15.236C11.9964 15.3633 12.6599 15.298 13.2629 15.0482C13.8659 14.7984 14.3813 14.3755 14.7439 13.8328C15.1065 13.2901 15.3 12.6521 15.3 11.9994C15.299 11.1245 14.951 10.2857 14.3324 9.66706C13.7137 9.04841 12.8749 8.70041 12 8.69942Z" fill="white"/>
<path d="M17.1001 8.0998C17.5971 8.0998 18.0001 7.69686 18.0001 7.19981C18.0001 6.70275 17.5971 6.2998 17.1001 6.2998C16.603 6.2998 16.2001 6.70275 16.2001 7.19981C16.2001 7.69686 16.603 8.0998 17.1001 8.0998Z" fill="white"/>
<defs>
<radialGradient id="paint0_radial" cx="0" cy="0" r="1" gradientUnits="userSpaceOnUse" gradientTransform="translate(-0.482811 23.5125) rotate(180) scale(55.4231)">
<stop stop-color="#F9ED32"/>
<stop offset="0.36" stop-color="#EE2A7B"/>
<stop offset="0.44" stop-color="#D22A8A"/>
<stop offset="0.6" stop-color="#8B2AB2"/>
<stop offset="0.83" stop-color="#1B2AF0"/>
<stop offset="0.88" stop-color="#002AFF"/>
</radialGradient>
</defs>
</svg>
