<svg width="24" height="24" viewBox="0 0 24 24" fill="none" xmlns="http://www.w3.org/2000/svg">
<path d="M24 12C24 5.37258 18.6274 0 12 0C5.37258 0 0 5.37258 0 12C0 18.6274 5.37258 24 12 24C18.6274 24 24 18.6274 24 12Z" fill="#0077B5"/>
<path d="M6.18058 4.32031C5.15272 4.32031 4.31995 5.15498 4.31995 6.18473C4.31995 7.21449 5.15272 8.04915 6.18058 8.04915C7.20843 8.04915 8.04121 7.21449 8.04121 6.18473C8.04121 5.15498 7.20843 4.32031 6.18058 4.32031ZM15.9258 9.17463V9.17589C15.7157 9.17514 15.5118 9.18355 15.245 9.19736C14.6599 9.22765 13.2935 9.86158 12.7932 10.8736C12.7932 10.4342 12.7983 10.0307 12.7983 9.42852C12.199 9.42852 11.4147 9.43231 9.77679 9.43231C9.77679 11.2711 9.75658 17.7829 9.75658 19.6803H12.9284C12.9284 18.5547 12.9435 15.7274 12.9435 13.9519C12.9435 13.3557 13.3039 11.9788 14.7827 11.9788C16.1254 11.9788 16.5018 13.1105 16.5018 13.9519C16.5018 15.801 16.4879 18.4148 16.4879 19.6803H19.6787C19.6787 18.4432 19.69 15.0829 19.6522 12.9628C19.6062 10.3887 18.0426 9.29036 16.6395 9.20368C16.3508 9.18584 16.136 9.17539 15.9258 9.17463V9.17463ZM4.58774 9.47273V19.6753H7.76837V9.47273H4.58774Z" fill="white"/>
</svg>
